# xmcd
#
# Track frame offsets: 
#        150
#        13719
#        29955
#        48586
#        62640
#        81700
#        99676
#        114825
#        131023
#        146205
#        162024
#
# Disc length: 2483 seconds
#
# Revision: 0
# Processed by: cddbd v1.5.1PL0 Copyright (c) Steve Scherf et al.
# Submitted via: ExactAudioCopy v0.95b3
#
DISCID=a009b10b
DTITLE=Zachariah - Ghost Signs
DYEAR=2002
DGENRE=Comedy
TTITLE0=The Bottle
TTITLE1=Will The Ink Fade
TTITLE2=No Place At All (Baby I'm A Drifter)
TTITLE3=Worst Dressed
TTITLE4=Tucson Afternoon
TTITLE5=Ghost Signs
TTITLE6=Thanks For Leaving Me
TTITLE7=Little Taste of Love
TTITLE8=Twenty Seven
TTITLE9=Ride Awhile
TTITLE10=Blood Rush
EXTD=
EXTT0=
EXTT1=
EXTT2=
EXTT3=
EXTT4=
EXTT5=
EXTT6=
EXTT7=
EXTT8=
EXTT9=
EXTT10=
PLAYORDER=
